<svg width="12" height="15" viewBox="0 0 12 15" fill="none" xmlns="http://www.w3.org/2000/svg">
<path d="M0.264205 15V0.454545H6.00284C7.10133 0.454545 8.03883 0.651041 8.81534 1.04403C9.59659 1.43229 10.1908 1.9839 10.598 2.69886C11.0099 3.40909 11.2159 4.24479 11.2159 5.20597C11.2159 6.17187 11.0076 7.00284 10.5909 7.69886C10.1742 8.39015 9.57055 8.92045 8.77983 9.28977C7.99384 9.65909 7.04214 9.84375 5.92472 9.84375H2.08239V7.37216H5.42756C6.01468 7.37216 6.50237 7.29167 6.89062 7.13068C7.27888 6.9697 7.56771 6.72822 7.7571 6.40625C7.95123 6.08428 8.0483 5.68419 8.0483 5.20597C8.0483 4.72301 7.95123 4.31581 7.7571 3.98438C7.56771 3.65294 7.27652 3.40199 6.88352 3.23153C6.49527 3.05634 6.00521 2.96875 5.41335 2.96875H3.33949V15H0.264205ZM8.11932 8.38068L11.7344 15H8.33949L4.80256 8.38068H8.11932Z" fill="#F99A26"/>
</svg>
