<?xml version="1.0" encoding="UTF-8" standalone="no"?>
<svg width="16" height="16" viewBox="0 0 16 16" fill="none" xmlns="http://www.w3.org/2000/svg">
  <circle cx="8" cy="8" r="7" fill="#4285F4"/>
  <path d="M10.5 11.5H6.5C6.1 11.5 5.75 11.4 5.45 11.2C5.15 11 4.95 10.7167 4.85 10.35L5.95 9.85C6 10.05 6.1 10.2 6.25 10.3C6.4 10.4 6.58333 10.45 6.8 10.45H10.2C10.4333 10.45 10.6167 10.3833 10.75 10.25C10.8833 10.1167 10.95 9.95 10.95 9.75C10.95 9.55 10.8833 9.38333 10.75 9.25C10.6167 9.11667 10.4333 9.05 10.2 9.05H7C6.36667 9.05 5.85 8.88333 5.45 8.55C5.05 8.21667 4.85 7.78333 4.85 7.25C4.85 6.71667 5.05 6.28333 5.45 5.95C5.85 5.61667 6.36667 5.45 7 5.45H10.5C10.9 5.45 11.25 5.55 11.55 5.75C11.85 5.95 12.05 6.23333 12.15 6.6L11.05 7.1C11 6.9 10.9 6.75 10.75 6.65C10.6 6.55 10.4167 6.5 10.2 6.5H7.3C7.06667 6.5 6.88333 6.56667 6.75 6.7C6.61667 6.83333 6.55 7 6.55 7.2C6.55 7.4 6.61667 7.56667 6.75 7.7C6.88333 7.83333 7.06667 7.9 7.3 7.9H10.5C11.1333 7.9 11.65 8.06667 12.05 8.4C12.45 8.73333 12.65 9.16667 12.65 9.7C12.65 10.2333 12.45 10.6667 12.05 11C11.65 11.3333 11.1333 11.5 10.5 11.5Z" fill="white"/>
</svg> 