<svg width="14" height="16" viewBox="0 0 14 16" fill="none" xmlns="http://www.w3.org/2000/svg">
<path d="M13.098 5.54688H9.98722C9.9304 5.14441 9.81439 4.78693 9.6392 4.47443C9.46402 4.1572 9.23911 3.88731 8.96449 3.66477C8.68987 3.44223 8.37263 3.27178 8.01278 3.15341C7.65767 3.03504 7.27178 2.97585 6.85511 2.97585C6.10227 2.97585 5.4465 3.16288 4.88778 3.53693C4.32907 3.90625 3.89583 4.44602 3.58807 5.15625C3.2803 5.86174 3.12642 6.71875 3.12642 7.72727C3.12642 8.7642 3.2803 9.63542 3.58807 10.3409C3.90057 11.0464 4.33617 11.5791 4.89489 11.9389C5.4536 12.2988 6.09991 12.4787 6.83381 12.4787C7.24574 12.4787 7.62689 12.4242 7.97727 12.3153C8.33239 12.2064 8.64725 12.0478 8.92188 11.8395C9.1965 11.6264 9.42377 11.3684 9.60369 11.0653C9.78835 10.7623 9.91619 10.4167 9.98722 10.0284L13.098 10.0426C13.0175 10.7102 12.8163 11.3542 12.4943 11.9744C12.1771 12.59 11.7486 13.1416 11.2088 13.6293C10.6738 14.1122 10.0346 14.4957 9.29119 14.7798C8.55256 15.0592 7.71686 15.1989 6.78409 15.1989C5.48674 15.1989 4.3267 14.9053 3.30398 14.3182C2.28598 13.7311 1.48106 12.8812 0.889205 11.7685C0.302083 10.6558 0.00852273 9.30871 0.00852273 7.72727C0.00852273 6.1411 0.306818 4.79167 0.903409 3.67898C1.5 2.56629 2.30966 1.71875 3.33239 1.13636C4.35511 0.549242 5.50568 0.255681 6.78409 0.255681C7.62689 0.255681 8.40814 0.374053 9.12784 0.610795C9.85227 0.847538 10.4938 1.19318 11.0526 1.64773C11.6113 2.09754 12.0658 2.64915 12.4162 3.30256C12.7713 3.95597 12.9986 4.70407 13.098 5.54688Z" fill="#53C3EC"/>
</svg>
